<svg width="240" height="240" viewBox="0 0 240 240" fill="none" xmlns="http://www.w3.org/2000/svg">
<path d="M120 240C186.274 240 240 186.274 240 120C240 53.7258 186.274 0 120 0C53.7258 0 0 53.7258 0 120C0 186.274 53.7258 240 120 240Z" fill="#E52F4D"/>
<path d="M52 171.2V77.6C52 75.2 52.8 74.4 55.2 74.4H107.2C108 74.4 108.8 74.4 109.6 75.2C110.4 76 110.4 76.8 110.4 77.6C110.4 78.4 110.4 79.2 109.6 80C108.8 80.8 108 80.8 107.2 80.8H59.2V120.8H101.6C102.4 120.8 103.2 120.8 104 121.6C104.8 122.4 104.8 123.2 104.8 124C104.8 124.8 104.8 125.6 104 126.4C102.4 128 101.6 128 100.8 128H58.4V171.2C58.4 172 58.4 172.8 57.6 173.6C56.8 174.4 56 174.4 55.2 174.4C54.4 174.4 53.6 174.4 52.8 173.6C52 173.6 52 172 52 171.2Z" fill="white"/>
<path d="M138.4 171.2V77.6C138.4 75.2 139.2 74.4 141.6 74.4H193.6C194.4 74.4 195.2 74.4 196 75.2C196.8 76 196.8 76.8 196.8 77.6C196.8 78.4 196.8 79.2 196 80C195.2 80.8 194.4 80.8 193.6 80.8H145.6V120.8H188C188.8 120.8 189.6 120.8 190.4 121.6C191.2 122.4 191.2 123.2 191.2 124C191.2 124.8 191.2 125.6 190.4 126.4C189.6 128 188.8 128 188 128H145.6V171.2C145.6 172 145.6 172.8 144.8 173.6C144 174.4 143.2 174.4 142.4 174.4C141.6 174.4 140.8 174.4 140 173.6C139.2 173.6 138.4 172 138.4 171.2Z" fill="white"/>
</svg>
